<svg xmlns="http://www.w3.org/2000/svg" version="1.1" xmlns:xlink="http://www.w3.org/1999/xlink" xmlns:svgjs="http://svgjs.dev/svgjs" width="1000" height="918" viewBox="0 0 1000 918"><g transform="matrix(1,0,0,1,-0.32826397144663133,0.37165991902833184)"><svg viewBox="0 0 269 247" data-background-color="#ffffff" preserveAspectRatio="xMidYMid meet" height="918" width="1000" xmlns="http://www.w3.org/2000/svg" xmlns:xlink="http://www.w3.org/1999/xlink"><g id="tight-bounds" transform="matrix(1,0,0,1,0.08830300831914428,-0.09999999999999432)"><svg viewBox="0 0 268.8233939833617 247.2" height="247.2" width="268.8233939833617"><g><svg viewBox="0 0 395.52 363.7054891363042" height="247.2" width="268.8233939833617"><g transform="matrix(1,0,0,1,0,255.85498942507994)"><svg viewBox="0 0 395.52 107.85049971122424" height="107.85049971122424" width="395.52"><g id="textblocktransform"><svg viewBox="0 0 395.52 107.85049971122424" height="107.85049971122424" width="395.52" id="textblock"><g><svg viewBox="0 0 395.52 58.169406060606065" height="58.169406060606065" width="395.52"><g transform="matrix(1,0,0,1,0,0)"><svg width="395.52" viewBox="1.5 -35.7 247.48 36.400000000000006" height="58.169406060606065" data-palette-color="#ffffff"><path d="M17.5 0.7Q12.65 0.7 9.05-1.53 5.45-3.75 3.48-7.88 1.5-12 1.5-17.5L1.5-17.5Q1.5-22.95 3.53-27.08 5.55-31.2 9.15-33.45 12.75-35.7 17.3-35.7L17.3-35.7Q21.3-35.7 24.9-34.2L24.9-34.2 24.4-29.95Q21.2-31.55 18.2-31.55L18.2-31.55Q14.5-31.55 11.88-29.7 9.25-27.85 7.9-24.65 6.55-21.45 6.55-17.5L6.55-17.5Q6.55-13.55 7.9-10.35 9.25-7.15 11.88-5.3 14.5-3.45 18.25-3.45L18.25-3.45Q21.5-3.45 24.4-4.95L24.4-4.95 24.9-0.7Q21.7 0.7 17.5 0.7L17.5 0.7ZM47.95 0L45.15-9.5 34.3-9.5 31.5 0 26.6 0 37.35-35 42.05-35 52.8 0 47.95 0ZM35.55-13.75L43.9-13.75 39.7-27.95 35.55-13.75ZM56.85 0L56.85-35 65.85-35Q71.35-35 74.42-32.27 77.5-29.55 77.5-24.3L77.5-24.3Q77.5-21.3 76.07-18.88 74.65-16.45 72.1-15.05L72.1-15.05 79.1 0 73.7 0 67.45-13.7Q66.65-13.6 65.8-13.6L65.8-13.6 61.4-13.6 61.4 0 56.85 0ZM61.4-17.8L65.45-17.8Q69.25-17.8 71-19.45 72.75-21.1 72.75-24.3L72.75-24.3Q72.75-27.55 71-29.2 69.25-30.85 65.45-30.85L65.45-30.85 61.4-30.85 61.4-17.8ZM83.54 0L83.54-35 94.74-35Q99.09-35 102.47-32.9 105.84-30.8 107.74-26.85 109.64-22.9 109.64-17.5L109.64-17.5Q109.64-12.1 107.74-8.15 105.84-4.2 102.47-2.1 99.09 0 94.74 0L94.74 0 83.54 0ZM88.09-4.15L93.89-4.15Q99.14-4.15 101.87-7.65 104.59-11.15 104.59-17.5L104.59-17.5Q104.59-23.85 101.87-27.35 99.14-30.85 93.89-30.85L93.89-30.85 88.09-30.85 88.09-4.15ZM144.54 0L139.64 0 137.34-25.3 128.89-7.25 120.44-25.3 118.09 0 113.24 0 117.04-35 120.89-35 128.89-16.95 136.89-35 140.74-35 144.54 0ZM168.09 0L165.29-9.5 154.44-9.5 151.64 0 146.74 0 157.49-35 162.19-35 172.94 0 168.09 0ZM155.69-13.75L164.04-13.75 159.84-27.95 155.69-13.75ZM180.64 0L180.64-30.85 171.94-30.85 171.94-35 193.94-35 193.94-30.85 185.24-30.85 185.24 0 180.64 0ZM211.78 0.7Q206.93 0.7 203.33-1.53 199.73-3.75 197.76-7.88 195.78-12 195.78-17.5L195.78-17.5Q195.78-22.95 197.81-27.08 199.83-31.2 203.43-33.45 207.03-35.7 211.58-35.7L211.58-35.7Q215.58-35.7 219.18-34.2L219.18-34.2 218.68-29.95Q215.48-31.55 212.48-31.55L212.48-31.55Q208.78-31.55 206.16-29.7 203.53-27.85 202.18-24.65 200.83-21.45 200.83-17.5L200.83-17.5Q200.83-13.55 202.18-10.35 203.53-7.15 206.16-5.3 208.78-3.45 212.53-3.45L212.53-3.45Q215.78-3.45 218.68-4.95L218.68-4.95 219.18-0.7Q215.98 0.7 211.78 0.7L211.78 0.7ZM223.78 0L223.78-35 228.33-35 228.33-20.55 244.43-20.55 244.43-35 248.98-35 248.98 0 244.43 0 244.43-16.1 228.33-16.1 228.33 0 223.78 0Z" opacity="1" transform="matrix(1,0,0,1,0,0)" fill="#ffffff" class="undefined-text-0" data-fill-palette-color="primary" id="text-0"></path></svg></g></svg></g><g transform="matrix(1,0,0,1,145.66007286690908,71.9018067657697)"><svg viewBox="0 0 104.19985426618183 35.948692945454546" height="35.948692945454546" width="104.19985426618183"><g transform="matrix(1,0,0,1,0,0)"><svg width="104.19985426618183" viewBox="1.35 -35 103.94000000000001 35" height="35.948692945454546" data-palette-color="#ffffff"><g class="undefined-text-1" data-fill-palette-color="secondary" id="text-1"><path d="M23.35 0L21.1 0Q18.45 0 16.5-1.13 14.55-2.25 13.5-4.25 12.45-6.25 12.45-8.8L12.45-8.8 12.45-31.8 1.35-31.8 1.35-35 27.15-35 27.15-31.8 16.05-31.8 16.05-8.3Q16.05-6.1 17.43-4.65 18.8-3.2 21.15-3.2L21.15-3.2 23.35-3.2 23.35 0ZM51.55 0L45.3 0Q41.2 0 37.97-1.53 34.75-3.05 32.87-5.9 31-8.75 31-12.75L31-12.75Q31-16.45 32.5-19.48 34-22.5 36.72-24.3 39.45-26.1 43.1-26.1L43.1-26.1Q46.85-26.1 49.45-24.45 52.05-22.8 53.4-20 54.75-17.2 54.75-13.7L54.75-13.7Q54.75-13.2 54.7-12.6 54.65-12 54.55-11.55L54.55-11.55 34.7-11.55Q34.85-8.75 36.3-6.85 37.75-4.95 40.07-4 42.4-3.05 45.1-3.05L45.1-3.05 51.55-3.05 51.55 0ZM34.7-14.05L34.7-14.05 51.2-14.05Q51.2-15.05 51-16.28 50.8-17.5 50.27-18.7 49.75-19.9 48.82-20.9 47.9-21.9 46.47-22.53 45.05-23.15 43-23.15L43-23.15Q41.1-23.15 39.55-22.35 38-21.55 36.95-20.23 35.9-18.9 35.32-17.3 34.75-15.7 34.7-14.05ZM63.6 0L59.6 0 68.9-12.1Q66.34-12.7 64.37-14.23 62.4-15.75 61.27-17.9 60.15-20.05 60.15-22.5L60.15-22.5 60.15-25.45 63.6-25.45 63.6-22.5Q63.6-20.35 64.77-18.63 65.95-16.9 67.84-15.83 69.75-14.75 71.95-14.55L71.95-14.55 80.25-25.45 84.2-25.45 75.4-14Q78.09-13.3 80.15-11.7 82.2-10.1 83.32-7.88 84.45-5.65 84.45-3L84.45-3 84.45 0 80.95 0 80.95-3Q80.95-5.3 79.84-7.13 78.75-8.95 76.8-10.1 74.84-11.25 72.34-11.45L72.34-11.45 63.6 0ZM105.19 0L99.59 0Q96.19 0 94.27-1.95 92.34-3.9 92.34-7.25L92.34-7.25 92.34-31.9 95.84-31.9 95.84-7.65Q95.84-5.45 96.97-4.25 98.09-3.05 100.29-3.05L100.29-3.05 105.19-3.05 105.19 0ZM105.29-22.45L87.89-22.45 87.89-25.5 105.29-25.5 105.29-22.45Z" fill="#ffffff" data-fill-palette-color="primary"></path></g></svg></g></svg></g></svg></g></svg></g><g transform="matrix(1,0,0,1,83.56490599262366,0)"><svg viewBox="0 0 228.39018801475265 228.39018801475265" height="228.39018801475265" width="228.39018801475265"><g><svg></svg></g><g id="icon-0"><svg viewBox="0 0 228.39018801475265 228.39018801475265" height="228.39018801475265" width="228.39018801475265"><g><path d="M0 114.195c0-63.068 51.127-114.195 114.195-114.195 63.068 0 114.195 51.127 114.195 114.195 0 63.068-51.127 114.195-114.195 114.195-63.068 0-114.195-51.127-114.195-114.195zM114.195 223.144c60.171 0 108.949-48.778 108.949-108.949 0-60.171-48.778-108.949-108.949-108.949-60.171 0-108.949 48.778-108.949 108.949 0 60.171 48.778 108.949 108.949 108.949z" data-fill-palette-color="accent" fill="#010c80" stroke="transparent"></path></g><g transform="matrix(1,0,0,1,47.13896539362298,73.31650589024022)"><svg viewBox="0 0 134.1122572275067 81.75717623427221" height="81.75717623427221" width="134.1122572275067"><g><svg xmlns="http://www.w3.org/2000/svg" xmlns:xlink="http://www.w3.org/1999/xlink" version="1.1" x="0" y="0" viewBox="0 0 99.99877306695504 60.961000000000006" enable-background="new 0 0 100 100" xml:space="preserve" height="81.75717623427221" width="134.1122572275067" class="icon-_$-0" data-fill-palette-color="accent" id="_$-0"><path fill-rule="evenodd" clip-rule="evenodd" d="M0 39.844c2.843-0.592 5.438-1.747 7.792-3.443 1.539-1.107 2.78-2.488 3.789-4.093 2.609-4.148 5.604-8.009 8.778-11.737 1.859-2.183 3.465-4.557 5.098-6.91 0.92-1.325 1.829-2.661 2.993-3.792 0.936-0.909 1.987-1.62 3.306-1.84 1.209-0.202 2.37 0.03 3.491 0.463 1.107 0.428 2.195 0.906 3.293 1.356 0.949 0.389 1.96 0.506 2.963 0.622 2.916 0.336 5.835 0.64 8.753 0.95 0.158 0.017 0.331-0.009 0.484-0.056C63.008 7.636 75.273 3.903 87.54 0.17c0.195-0.06 0.393-0.114 0.589-0.17 0.331 0 0.662 0 0.993 0 0.355 0.126 0.727 0.221 1.064 0.384 0.892 0.431 1.493 1.138 1.781 2.083 2.626 8.611 5.247 17.223 7.864 25.836 0.596 1.961-0.438 3.842-2.434 4.45-5.303 1.617-10.606 3.231-15.91 4.845-7.229 2.2-14.459 4.399-21.688 6.599-2.021 0.615-3.896-0.389-4.503-2.411-0.032-0.106-0.07-0.211-0.12-0.358-0.347 0.397-0.663 0.771-0.991 1.134-0.977 1.083-2.016 1.3-3.348 0.706-0.885-0.395-1.568-1.024-2.121-1.808-0.064-0.091-0.125-0.184-0.212-0.312-0.334 0.229-0.652 0.437-0.958 0.659-0.586 0.423-1.149 0.881-1.752 1.278-0.937 0.616-1.881 0.5-2.744-0.146-1.359-1.02-1.946-2.445-2.025-4.108-0.01-0.215-0.001-0.431-0.001-0.742-0.201 0.292-0.356 0.514-0.507 0.739-1.046 1.563-2.076 3.138-3.142 4.687-1.19 1.73-2.637 3.204-4.446 4.305-1.128 0.687-2.216 1.441-3.363 2.095-0.967 0.551-2.043 0.826-3.156 0.931-0.12 0.011-0.244 0.048-0.354 0.1-3.823 1.798-7.502 3.842-10.886 6.39-1.357 1.022-2.628 2.141-3.752 3.42-0.054 0.062-0.11 0.121-0.187 0.205-0.689-0.63-1.365-1.247-2.077-1.896 3.34-3.779 7.544-6.362 11.91-8.788-1.932-0.688-3.826-1.362-5.72-2.036 0.005-0.021 0.01-0.042 0.016-0.062 0.839 0.045 1.678 0.085 2.516 0.138 1.413 0.089 2.825 0.192 4.238 0.278 0.948 0.058 1.897 0.144 2.845 0.136 1.99-0.016 3.75-0.726 5.345-1.889 0.71-0.518 1.431-1.021 2.157-1.516 1.264-0.861 2.205-2.027 3.049-3.271 1.212-1.787 2.363-3.616 3.581-5.4 0.57-0.834 1.208-1.626 1.861-2.398 0.811-0.959 1.831-1.612 3.043-1.991 2.237-0.698 4.466-1.422 6.687-2.169 1.853-0.624 3.653-1.384 5.317-2.422 0.866-0.541 1.729-1.113 2.354-1.943 1.666-2.213 0.729-4.899-1.948-5.617-0.851-0.228-1.714-0.223-2.585-0.135-2.397 0.244-4.729 0.762-6.965 1.667-3.007 1.218-5.863 2.713-8.472 4.665-1.642 1.228-3.455 2.154-5.415 2.761-1.104 0.342-2.239 0.58-3.35 0.901-2.614 0.755-4.923 2.07-6.95 3.878-1.258 1.122-2.495 2.266-3.742 3.399-0.106 0.097-0.215 0.19-0.362 0.261 0.054-0.092 0.105-0.186 0.163-0.276 0.938-1.461 1.857-2.934 2.819-4.379 0.865-1.301 2.04-2.294 3.301-3.196 1.858-1.329 3.956-2.082 6.151-2.603 1.13-0.268 2.215-0.657 3.265-1.15 0.205-0.097 0.263-0.201 0.224-0.425-0.159-0.895-0.418-1.756-0.932-2.51-1.297-1.907-1.775-4.02-1.654-6.296 0.019-0.357 0.003-0.716 0.003-1.075 0.028-0.003 0.057-0.006 0.086-0.009 0.133 0.576 0.266 1.151 0.397 1.727 0.394 1.721 1.09 3.282 2.309 4.597 0.402 0.434 0.71 0.957 1.115 1.512 0-1.069 0-2.083 0-3.095 0.048-0.005 0.096-0.011 0.144-0.016 0.298 1.334 0.596 2.668 0.894 4 1.238-0.829 2.502-1.675 3.758-2.516-0.238-0.702-0.499-1.428-0.729-2.164-0.312-0.995-0.251-1.976 0.172-2.932 0.016-0.034 0.04-0.065 0.097-0.156-0.011 0.243-0.003 0.418-0.029 0.587-0.108 0.727 0.054 1.405 0.41 2.029 0.397 0.697 0.834 1.371 1.264 2.069 2.102-1.09 4.172-2.062 6.41-2.722-0.149-0.5-0.292-0.982-0.436-1.463-0.099-0.327-0.195-0.653-0.3-0.977-0.224-0.689-0.214-1.381-0.019-2.112-0.587-0.062-1.15-0.113-1.712-0.184-2.244-0.284-4.493-0.541-6.729-0.875-1.223-0.183-2.32-0.789-3.457-1.253-0.733-0.299-1.483-0.574-2.246-0.785-0.862-0.239-1.691-0.057-2.341 0.558-0.673 0.636-1.337 1.302-1.887 2.043-1.335 1.802-2.552 3.692-3.907 5.478-1.599 2.107-3.266 4.165-4.952 6.204-2.259 2.729-4.33 5.595-6.205 8.594-2.153 3.444-5.184 5.79-8.848 7.399-1.458 0.641-2.959 1.152-4.57 1.44-0.138-0.632-0.27-1.254-0.41-1.874C0.133 40.477 0.062 40.255 0 40.031 0 39.968 0 39.907 0 39.844zM54.99 31.133c1.005 3.299 2.005 6.588 3.009 9.875 0.152 0.499 0.498 0.655 1.047 0.488 12.493-3.804 24.986-7.609 37.479-11.413 0.615-0.188 0.771-0.479 0.582-1.097-2.59-8.502-5.181-17.005-7.771-25.507-0.191-0.626-0.471-0.777-1.085-0.59-10.834 3.299-21.668 6.597-32.502 9.896-1.688 0.514-3.377 1.027-5.065 1.544-0.485 0.149-0.666 0.473-0.525 0.947 0.236 0.792 0.478 1.581 0.731 2.367 0.023 0.072 0.156 0.166 0.227 0.157 0.778-0.099 1.554-0.224 2.332-0.328 1.455-0.194 2.892-0.132 4.275 0.399 2.943 1.129 4.483 3.772 3.902 6.786-0.327 1.694-1.268 3.042-2.655 4.053-0.8 0.583-1.643 1.107-2.484 1.628C56.016 30.631 55.507 30.862 54.99 31.133zM52.352 32.119c-0.243 0.156-0.505 0.233-0.616 0.408-1.203 1.882-1.676 3.963-1.508 6.171 0.075 0.983 0.627 1.752 1.495 2.268 0.268 0.159 0.486 0.173 0.691-0.103 0.576-0.779 1.168-1.547 1.738-2.331 0.063-0.086 0.066-0.255 0.033-0.367-0.3-1.02-0.614-2.035-0.924-3.051C52.967 34.147 52.674 33.181 52.352 32.119zM48.527 33.43c-1.171 0.365-2.283 0.707-3.389 1.063-0.102 0.033-0.195 0.147-0.256 0.246-0.589 0.945-1.019 1.961-1.286 3.04-0.27 1.085-0.097 2.09 0.653 2.961 0.176 0.205 0.327 0.244 0.566 0.066 0.803-0.597 1.606-1.197 2.444-1.74 0.341-0.221 0.48-0.419 0.471-0.841C47.694 36.609 47.979 35.038 48.527 33.43z" fill="#010c80" data-fill-palette-color="accent"></path><path fill-rule="evenodd" clip-rule="evenodd" d="M54.18 20.656c-0.78 0.464-1.556 0.936-2.344 1.386-0.216 0.123-0.271 0.239-0.223 0.488 0.227 1.156 0.438 2.313 0.959 3.386 0.482 0.992 1.145 1.342 2.217 1.098 0.449-0.103 0.886-0.272 1.314-0.445 0.199-0.081 0.256-0.014 0.31 0.158-0.696 0.502-1.442 0.855-2.305 0.919-0.997 0.074-1.675-0.43-2.16-1.235-0.809-1.339-1.202-2.825-1.485-4.345-0.075-0.401 0.06-0.572 0.455-0.668 1.081-0.263 2.162-0.524 3.243-0.786C54.168 20.627 54.174 20.641 54.18 20.656z" fill="#010c80" data-fill-palette-color="accent"></path></svg></g></svg></g></svg></g></svg></g><g></g></svg></g><defs></defs></svg><rect width="268.8233939833617" height="247.2" fill="none" stroke="none" visibility="hidden"></rect></g></svg></g></svg>